<svg width="274" height="274" viewBox="0 0 274 274" fill="none" xmlns="http://www.w3.org/2000/svg">
<rect width="274" height="274" rx="51" fill="url(#paint0_linear_2090_2180)"/>
<path d="M77.2692 97.915C77.2692 86.9382 86.4115 78.0078 97.6488 78.0078H177.136C188.374 78.0078 197.516 86.9382 197.516 97.915V175.559C197.516 186.536 188.374 195.467 177.136 195.467H97.6488C86.4115 195.467 77.2692 186.536 77.2692 175.559V97.915ZM97.6488 206.473H177.136C194.587 206.473 208.785 192.606 208.785 175.559V97.915C208.785 80.8683 194.587 67 177.136 67H97.6488C80.1975 67 66 80.8683 66 97.915V175.559C66 192.606 80.1975 206.473 97.6488 206.473Z" fill="white"/>
<defs>
<linearGradient id="paint0_linear_2090_2180" x1="137" y1="0" x2="137" y2="274" gradientUnits="userSpaceOnUse">
<stop stop-color="#BA59E1"/>
<stop offset="1" stop-color="#3B48D1"/>
</linearGradient>
</defs>
</svg>
